<?xml version="1.0" encoding="UTF-8"?>
<svg id="Layer_1" data-name="Layer 1" xmlns="http://www.w3.org/2000/svg" viewBox="0 0 900 900">
  <defs>
    <style>
      .cls-1 {
        fill: #fff;
      }

      .cls-2 {
        fill: #4b1d77;
      }
    </style>
  </defs>
  <path class="cls-2" d="M34.74,626.5C-44.51,425.1,13.75,210.1,189.75,83.57,381.55-54.31,641.9-16.51,794.47,159.59c167.75,193.63,130.96,509.91-78.1,658.29-173.16,122.9-425.22,106.38-579.29-39.71-26.73-25.34-50.62-55.99-69.98-87.29M442.58,32.87C229.99,35.56,44.43,211.03,34.4,423.34c-10.2,215.92,128.03,402.72,344.4,438.87,268.04,44.77,495.87-156.94,487.82-426.16-6.74-225.57-197.83-406.04-424.04-403.18Z"/>
  <path class="cls-1" d="M442.58,32.87c226.22-2.86,417.3,177.61,424.04,403.18,8.05,269.22-219.78,470.94-487.82,426.16C162.43,826.07,24.19,639.27,34.4,423.34,44.43,211.03,229.99,35.56,442.58,32.87ZM184.57,170.56c-246.2,228.53-92.37,650.55,244.83,666.68,353.01,16.88,542.08-395.29,303.82-649.68C584.12,28.37,343.84,22.72,184.57,170.56Z"/>
  <path class="cls-2" d="M184.57,170.56C343.84,22.72,584.12,28.37,733.21,187.56c238.26,254.39,49.19,666.56-303.82,649.68C92.19,821.12-61.63,399.1,184.57,170.56ZM253.33,485.05h-47.86l-1.28,49.58h42.75c.47,0,2.06,1.29,2.99,1.49l-12.56,201.91,84.93,3.49,1.67-1.76c6.93-122.77,15.39-245.62,23.43-368.22,1.59-7.31,13.37-8.48,16.85-2.07l166.02,243.97h87.42c.97-89.69,7.12-179.2,10.26-268.82.26-6.14-1.59-26.59,1.83-29.96,3.03-2.98,34.7-.87,41.5.03.27-16.04,3.25-32.45,0-48.3h-41.48c-3.65,0-3.33-9.69-3.24-12.13,1.48-37.4,6.12-75.02,5.16-112.45l-81.55-1.13c-6.78,87.99-9.75,176.57-14.25,264.84-1.19,7.23-7.34,9.01-13.4,5.86l-138.7-204.44c-29.17-3.51-59.03-.63-88.46-1.52-6.56-.2-13.91-2.55-20.94-1.26l-21.12,280.88Z"/>
  <path class="cls-1" d="M383.85,206.95l138.7,204.44c6.06,3.15,12.21,1.37,13.4-5.86,2.39-59.28,5.74-118.8,9-177.91,1.59-28.96,1.76-58.23,5.25-86.93l81.55,1.13c-.23,7.83.28,15.74.05,23.58-.87,29.44-4.11,59.41-5.2,88.88-.09,2.44-.41,12.13,3.24,12.13h41.48c-.39,16.31.26,32.27,0,48.3-6.8-.9-38.48-3.01-41.5-.03-3.42,3.37-1.57,23.81-1.83,29.96-3.48,81.37-7.07,162.53-10.32,243.97-.33,8.25.35,16.6.05,24.84h-87.42l-166.02-243.97c-3.48-6.41-15.26-5.25-16.85,2.07-1.85,8.51-.91,20.21-1.56,28.96-8.34,113.03-15.23,226.1-21.87,339.26l-1.67,1.76-84.93-3.49,12.56-201.91c-.92-.19-2.52-1.49-2.99-1.49h-42.75l1.28-49.58h47.86l21.12-280.88"/>
</svg>